# Blender 3.6.1
# www.blender.org
mtllib mcl_sculk_sensor.mtl
o Cube
v 0.000000 0.000000 0.000000
v 0.000000 0.000000 0.000000
v 0.000000 0.000000 0.000000
v 0.000000 0.000000 0.000000
v 0.000000 0.000000 0.000000
v 0.000000 0.000000 0.000000
v 0.000000 0.000000 0.000000
v 0.000000 0.000000 0.000000
vn -0.0000 -0.0000 -0.0000
vt 0.375000 0.000000
vt 0.625000 0.000000
vt 0.625000 0.250000
vt 0.375000 0.250000
vt 0.625000 0.500000
vt 0.375000 0.500000
vt 0.625000 0.750000
vt 0.375000 0.750000
vt 0.625000 1.000000
vt 0.375000 1.000000
vt 0.125000 0.500000
vt 0.125000 0.750000
vt 0.875000 0.500000
vt 0.875000 0.750000
s 0
f 1/1/1 2/2/1 4/3/1 3/4/1
f 3/4/1 4/3/1 8/5/1 7/6/1
f 7/6/1 8/5/1 6/7/1 5/8/1
f 5/8/1 6/7/1 2/9/1 1/10/1
f 3/11/1 7/6/1 5/8/1 1/12/1
f 8/5/1 4/13/1 2/14/1 6/7/1
o node.001
v 0.500000 0.003944 0.500000
v 0.500000 0.003944 -0.500000
v 0.500000 -0.496056 -0.500000
v 0.500000 -0.496056 0.500000
v -0.500000 0.003944 0.500000
v 0.500000 0.003944 0.500000
v 0.500000 0.003944 -0.500000
v -0.500000 0.003944 -0.500000
v -0.500000 -0.496056 -0.500000
v 0.500000 -0.496056 -0.500000
v 0.500000 -0.496056 0.500000
v -0.500000 -0.496056 0.500000
v -0.000000 0.503944 0.707107
v 0.707107 0.503944 -0.000000
v 0.000000 0.503944 -0.707107
v -0.707107 0.503944 -0.000000
v -0.707107 0.003944 0.000000
v 0.000000 0.003944 -0.707107
v 0.707107 0.003944 0.000000
v 0.000000 0.003944 0.707107
vn 1.0000 -0.0000 -0.0000
vn -0.0000 1.0000 -0.0000
vn -0.0000 -1.0000 -0.0000
vn -1.0000 -0.0000 -0.0000
vn -0.0000 -0.0000 -1.0000
vn -0.0000 -0.0000 1.0000
vn 0.7071 -0.0000 -0.7071
vn -0.7071 -0.0000 0.7071
vn -0.7071 -0.0000 -0.7071
vn 0.7071 -0.0000 0.7071
vt 0.000000 0.000000
vt 1.000000 0.000000
vt 1.000000 0.500000
vt 0.000000 0.500000
vt 1.000000 1.000000
vt 0.000000 1.000000
s 0
g node.001_sensor_tendril
usemtl sensor_tendril
f 27/15/8 26/16/8 23/17/8 22/18/8
f 25/15/9 28/16/9 21/17/9 24/18/9
f 26/15/10 25/16/10 24/17/10 23/18/10
f 28/15/11 27/16/11 22/17/11 21/18/11
g node.001_sensor_box_vertical_top
usemtl sensor_box_vertical_top
f 13/15/3 14/16/3 15/19/3 16/20/3
g node.001_sensor_box_vertical_bottom
usemtl sensor_box_vertical_bottom
f 17/15/4 18/16/4 19/19/4 20/20/4
g node.001_sensor_box_horizontal
usemtl sensor_box_horizontal
f 12/15/2 11/16/2 10/17/2 9/18/2
f 17/15/5 20/16/5 13/17/5 16/18/5
f 18/15/6 17/16/6 16/17/6 15/18/6
f 20/15/7 19/16/7 14/17/7 13/18/7
