# Blender v3.4.1 OBJ File: ''
# www.blender.org
mtllib mcl_heads_ceiling.mtl
o Cube.002
v -0.250000 0.012510 0.250000
v -0.250000 0.512510 0.250000
v -0.250000 0.512510 -0.250000
v -0.250000 0.012510 -0.250000
v 0.250000 0.512510 -0.250000
v 0.250000 0.012510 -0.250000
v 0.250000 0.512510 0.250000
v 0.250000 0.012510 0.250000
vt 0.875000 0.500000
vt 0.875000 0.750000
vt 0.750000 0.750000
vt 0.750000 0.500000
vt 0.625000 0.750000
vt 0.625000 0.500000
vt 0.500000 0.750000
vt 0.500000 0.500000
vt 1.000000 0.500000
vt 1.000000 0.750000
vt 0.875000 0.750000
vt 0.875000 1.000000
vt 0.750000 1.000000
vt 0.750000 0.750000
vt 0.750000 1.000000
vt 0.625000 1.000000
vn -1.0000 0.0000 0.0000
vn 0.0000 0.0000 -1.0000
vn 1.0000 -0.0000 0.0000
vn 0.0000 -0.0000 1.0000
vn -0.0000 -1.0000 -0.0000
vn 0.0000 1.0000 0.0000
usemtl Material.002
s 1
f 1/1/1 2/2/1 3/3/1 4/4/1
f 4/4/2 3/3/2 5/5/2 6/6/2
f 6/6/3 5/5/3 7/7/3 8/8/3
f 8/9/4 7/10/4 2/2/4 1/1/4
f 4/11/5 6/12/5 8/13/5 1/14/5
f 5/5/6 3/3/6 2/15/6 7/16/6
