# Blender 3.6.2
# www.blender.org
mtllib mc_plant.mtl
o Cylinder
v 0.514871 -0.500000 0.178942
v 0.514871 0.500000 0.178942
v -0.204469 -0.500000 -0.515716
v -0.204469 0.500000 -0.515716
v 0.502530 0.500000 -0.528057
v 0.502530 -0.500000 -0.528057
v -0.192128 0.500000 0.191283
v -0.192128 -0.500000 0.191283
v 0.514871 -0.500000 0.178942
v 0.514871 0.500000 0.178942
v -0.204469 -0.500000 -0.515716
v -0.204469 0.500000 -0.515716
v 0.502530 0.500000 -0.528057
v 0.502530 -0.500000 -0.528057
v -0.192128 0.500000 0.191283
v -0.192128 -0.500000 0.191283
vn -0.6947 -0.0000 0.7193
vn -0.7193 -0.0000 -0.6947
vn 0.6947 -0.0000 -0.7193
vn 0.7193 -0.0000 0.6947
vt 1.000000 -0.000000
vt 1.000000 1.000000
vt 0.000000 1.000000
vt -0.000000 0.000000
s 0
f 1/1/1 2/2/1 4/3/1 3/4/1
f 8/1/2 7/2/2 5/3/2 6/4/2
f 9/1/3 11/4/3 12/3/3 10/2/3
f 16/1/4 14/4/4 13/3/4 15/2/4
