# Made in Blockbench 4.11.0
mtllib vlf_bows_bow.mtl

o cube
v 0.892403734877925 1.1653510953785593 1.237436867076458
v 0.7696159309089523 1.8617153356985785 0.5303300858899105
v 1.0151915388468982 0.4689868550585403 0.5303300858899105
v 0.8924037348779252 1.1653510953785593 -0.17677669529663687
v 0.7080654463456895 1.8508623245943951 0.5303300858899105
v 0.8308532503146622 1.1544980842743762 1.237436867076458
v 0.8308532503146622 1.1544980842743762 -0.17677669529663687
v 0.9536410542836351 0.4581338439543572 0.5303300858899105
vt 0 1
vt 0.03125 1
vt 0.03125 0.5
vt 0 0.5
vt 0 1
vt 0.5 1
vt 0.5 0.5
vt 0 0.5
vt 0.46875 1
vt 0.5 1
vt 0.5 0.5
vt 0.46875 0.5
vt 0 1
vt 0.5 1
vt 0.5 0.5
vt 0 0.5
vt 0.5 0.96875
vt 0 0.96875
vt 0 1
vt 0.5 1
vt 0.5 0.5
vt 0.5 1
vt 0.46875 1
vt 0.46875 0.5
vn -0.12278780396897282 0.6963642403200189 -0.7071067811865476
vn 0.984807753012208 0.17364817766693033 0
vn 0.12278780396897282 -0.6963642403200189 0.7071067811865476
vn -0.984807753012208 -0.17364817766693033 0
vn -0.12278780396897282 0.6963642403200189 0.7071067811865476
vn 0.12278780396897282 -0.6963642403200189 -0.7071067811865476
usemtl m_7fd446d6-680f-fef3-9f33-cb6c0a46c6b3
f 4/4/1 7/3/1 5/2/1 2/1/1
f 3/8/2 4/7/2 2/6/2 1/5/2
f 8/12/3 3/11/3 1/10/3 6/9/3
f 7/16/4 8/15/4 6/14/4 5/13/4
f 6/20/5 1/19/5 2/18/5 5/17/5
f 7/24/6 4/23/6 3/22/6 8/21/6