# Blender 4.0.2
# www.blender.org
mtllib creaking_eyes.mtl
o cube
v 0.181970 0.067638 0.000235
v 0.181970 0.067638 0.000235
v 0.181970 0.005138 0.000235
v 0.181970 0.005138 0.000235
v -0.005530 0.067638 0.000235
v -0.005530 0.067638 0.000235
v -0.005530 0.005138 0.000235
v -0.005530 0.005138 0.000235
vn -0.0000 -0.0000 -1.0000
vn 1.0000 -0.0000 -0.0000
vn -0.0000 -0.0000 1.0000
vn -1.0000 -0.0000 -0.0000
vn -0.0000 1.0000 -0.0000
vn -0.0000 -1.0000 -0.0000
vt 0.093750 0.859375
vt 0.140625 0.859375
vt 0.140625 0.875000
vt 0.093750 0.875000
vt 0.000000 0.984375
vt 0.000000 1.000000
vt 0.046875 1.000000
s 0
usemtl m_0c6016b8-425e-336b-d937-f80794b7f364
f 4/1/1 7/2/1 5/3/1 2/4/1
f 3/5/1 4/5/2 2/6/1 1/6/2
f 8/1/3 3/2/3 1/3/3 6/4/3
f 7/5/1 8/5/4 6/6/1 5/6/4
f 6/6/5 1/7/1 2/7/5 5/6/1
f 7/6/6 4/7/1 3/7/6 8/6/1
