# Blender 4.0.2
# www.blender.org
mtllib sculk_shrieker_w_logged.mtl
o Cube
v 0.000000 0.000000 0.000000
v 0.000000 0.000000 0.000000
v 0.000000 0.000000 0.000000
v 0.000000 0.000000 0.000000
v 0.000000 0.000000 0.000000
v 0.000000 0.000000 0.000000
v 0.000000 0.000000 0.000000
v 0.000000 0.000000 0.000000
vn -0.0000 -0.0000 -0.0000
vt 0.375000 0.000000
vt 0.625000 0.000000
vt 0.625000 0.250000
vt 0.375000 0.250000
vt 0.625000 0.500000
vt 0.375000 0.500000
vt 0.625000 0.750000
vt 0.375000 0.750000
vt 0.625000 1.000000
vt 0.375000 1.000000
vt 0.125000 0.500000
vt 0.125000 0.750000
vt 0.875000 0.500000
vt 0.875000 0.750000
s 0
f 1/1/1 2/2/1 4/3/1 3/4/1
f 3/4/1 4/3/1 8/5/1 7/6/1
f 7/6/1 8/5/1 6/7/1 5/8/1
f 5/8/1 6/7/1 2/9/1 1/10/1
f 3/11/1 7/6/1 5/8/1 1/12/1
f 8/5/1 4/13/1 2/14/1 6/7/1
o base_node
v -0.500000 -0.500000 -0.500000
v 0.500000 -0.500000 -0.500000
v 0.500000 -0.500000 0.500000
v -0.500000 -0.500000 0.500000
v 0.500000 0.000000 0.500000
v 0.500000 -0.000000 -0.500000
v -0.500000 -0.000000 -0.500000
v -0.500000 0.000000 0.500000
v -0.450000 0.450000 0.450000
v 0.450000 0.450000 0.450000
v 0.450000 0.450000 -0.450000
v -0.450000 0.450000 -0.450000
v 0.450000 0.000000 0.450000
v 0.450000 -0.000000 -0.450000
v -0.450000 -0.000000 -0.450000
v -0.450000 0.000000 0.450000
v -0.500000 -0.000000 -0.500000
v 0.500000 -0.000000 -0.500000
v 0.500000 0.000000 0.500000
v -0.500000 0.000000 0.500000
v 0.500000 0.500000 0.500000
v 0.500000 0.500000 -0.500000
v -0.500000 0.500000 -0.500000
v -0.500000 0.500000 0.500000
vn -0.0000 -1.0000 -0.0000
vn -0.0000 -0.0000 1.0000
vn -0.0000 -0.0000 -1.0000
vn -1.0000 -0.0000 -0.0000
vn 1.0000 -0.0000 -0.0000
vn -0.0000 1.0000 -0.0000
vt 0.000000 0.000000
vt 1.000000 0.000000
vt 1.000000 1.000000
vt 0.000000 1.000000
vt 1.000000 0.500000
vt 0.000000 0.500000
vt 0.999900 0.000100
vt 0.999900 0.999900
vt 0.000100 0.999900
vt 0.000100 0.000100
vt 0.938000 0.938000
vt 0.062000 0.938000
vt 0.062000 0.062000
vt 0.938000 0.062000
vt 0.062500 0.500000
vt 0.937500 0.500000
vt 0.937500 0.938000
vt 0.062500 0.938000
s 0
g base_node_sculk_shrieker_top
usemtl sculk_shrieker_top
f 17/25/7 18/26/7 19/27/7 20/28/7
g base_node_sculk_shrieker_side
usemtl sculk_shrieker_side
f 12/15/3 11/16/3 13/19/3 16/20/3
f 10/15/4 9/16/4 15/19/4 14/20/4
f 9/15/5 12/16/5 16/19/5 15/20/5
f 11/15/6 10/16/6 14/19/6 13/20/6
f 21/29/6 22/30/6 19/31/6 18/32/6
f 23/29/5 24/30/5 17/31/5 20/32/5
f 22/29/4 23/30/4 20/31/4 19/32/4
f 24/29/3 21/30/3 18/31/3 17/32/3
g base_node_sculk_shrieker_inner_top
usemtl sculk_shrieker_inner_top
f 13/21/7 14/22/7 15/23/7 16/24/7
g base_node_sculk_shrieker_bottom
usemtl sculk_shrieker_bottom
f 9/15/2 10/16/2 11/17/2 12/18/2
g base_node_water
usemtl water
f 28/15/3 27/16/3 29/19/3 32/20/3
f 26/15/4 25/16/4 31/19/4 30/20/4
f 25/15/5 28/16/5 32/19/5 31/20/5
f 27/15/6 26/16/6 30/19/6 29/20/6
f 29/21/7 30/22/7 31/23/7 32/24/7
