# Blender 4.3.1
# www.blender.org
mtllib mcl_candles_candle_4.mtl
o Candle_4
v -0.218750 -0.500000 0.156250
v -0.218750 -0.187500 0.156250
v -0.218750 -0.500000 0.031250
v -0.218750 -0.187500 0.031250
v -0.093750 -0.500000 0.156250
v -0.093750 -0.187500 0.156250
v -0.093750 -0.500000 0.031250
v -0.093750 -0.187500 0.031250
v -0.178347 -0.187500 0.115847
v -0.178347 -0.125000 0.115847
v -0.134153 -0.187500 0.071653
v -0.134153 -0.125000 0.071653
v -0.178347 -0.187500 0.071653
v -0.178347 -0.125000 0.071653
v -0.134153 -0.187500 0.115847
v -0.134153 -0.125000 0.115847
v 0.093750 -0.125000 0.093750
v 0.093750 -0.500000 0.093750
v 0.093750 -0.125000 0.218750
v 0.093750 -0.500000 0.218750
v -0.031250 -0.125000 0.093750
v -0.031250 -0.500000 0.093750
v -0.031250 -0.125000 0.218750
v -0.031250 -0.500000 0.218750
v 0.009153 -0.125000 0.178347
v 0.009153 -0.062500 0.178347
v 0.053347 -0.125000 0.134153
v 0.053347 -0.062500 0.134153
v 0.009153 -0.125000 0.134153
v 0.009153 -0.062500 0.134153
v 0.053347 -0.125000 0.178347
v 0.053347 -0.062500 0.178347
v -0.125000 -0.500000 -0.031250
v -0.125000 -0.312500 -0.031250
v -0.125000 -0.500000 -0.156250
v -0.125000 -0.312500 -0.156250
v 0.000000 -0.500000 -0.031250
v 0.000000 -0.312500 -0.031250
v 0.000000 -0.500000 -0.156250
v 0.000000 -0.312500 -0.156250
v -0.084597 -0.250000 -0.115847
v -0.040403 -0.250000 -0.071653
v -0.084597 -0.312500 -0.115847
v -0.040403 -0.312500 -0.071653
v -0.040403 -0.250000 -0.115847
v -0.084597 -0.250000 -0.071653
v -0.040403 -0.312500 -0.115847
v -0.084597 -0.312500 -0.071653
v 0.062500 -0.500000 0.031250
v 0.062500 -0.187500 0.031250
v 0.062500 -0.500000 -0.093750
v 0.062500 -0.187500 -0.093750
v 0.187500 -0.500000 0.031250
v 0.187500 -0.187500 0.031250
v 0.187500 -0.500000 -0.093750
v 0.187500 -0.187500 -0.093750
v 0.102903 -0.187500 -0.009153
v 0.102903 -0.125000 -0.009153
v 0.147097 -0.187500 -0.053347
v 0.147097 -0.125000 -0.053347
v 0.102903 -0.187500 -0.053347
v 0.102903 -0.125000 -0.053347
v 0.147097 -0.187500 -0.009153
v 0.147097 -0.125000 -0.009153
vn -1.0000 -0.0000 -0.0000
vn -0.0000 -0.0000 -1.0000
vn 1.0000 -0.0000 -0.0000
vn -0.0000 -0.0000 1.0000
vn -0.0000 -1.0000 -0.0000
vn -0.0000 1.0000 -0.0000
vn -0.7071 -0.0000 -0.7071
vn 0.7071 -0.0000 -0.7071
vn 0.7071 -0.0000 0.7071
vt 0.125000 0.062500
vt 0.125000 0.375000
vt 0.000000 0.375000
vt 0.000000 0.062500
vt 0.000000 0.062500
vt 0.000000 0.125000
vt 0.000000 0.000000
vt 0.125000 0.000000
vt 0.125000 0.125000
vt 0.000000 0.250000
vt 0.125000 0.250000
vt 0.000000 0.437500
vt 0.062500 0.437500
vt 0.062500 0.500000
vt 0.000000 0.500000
vt 0.000000 0.000000
vt 0.125000 0.000000
vt 0.125000 0.187500
vt 0.000000 0.187500
vt 0.000000 0.125000
s 0
g Candle_4_Candle
usemtl Candle
f 1/1/1 2/2/1 4/3/1 3/4/1
f 3/1/2 4/2/2 8/3/2 7/5/2
f 7/1/3 8/2/3 6/3/3 5/5/3
f 5/1/4 6/2/4 2/3/4 1/5/4
f 3/6/5 7/7/5 5/8/5 1/9/5
f 8/10/6 4/11/6 2/2/6 6/3/6
f 9/12/7 10/13/7 12/14/7 11/15/7
f 13/12/8 14/13/8 16/14/8 15/15/8
f 17/10/6 21/11/6 23/2/6 19/3/6
f 20/8/4 19/2/4 23/3/4 24/16/4
f 24/17/1 23/2/1 21/3/1 22/16/1
f 22/6/5 18/7/5 20/8/5 24/9/5
f 18/8/3 17/2/3 19/3/3 20/16/3
f 22/8/2 21/2/2 17/3/2 18/16/2
f 25/12/7 26/13/7 28/14/7 27/15/7
f 29/12/8 30/13/8 32/14/8 31/15/8
f 33/18/1 34/2/1 36/3/1 35/19/1
f 35/18/2 36/2/2 40/3/2 39/19/2
f 39/18/3 40/2/3 38/3/3 37/19/3
f 37/18/4 38/2/4 34/3/4 33/19/4
f 35/20/5 39/16/5 37/8/5 33/9/5
f 40/10/6 36/11/6 34/2/6 38/3/6
f 41/12/8 42/13/8 44/14/8 43/15/8
f 45/12/9 46/13/9 48/14/9 47/15/9
f 49/1/1 50/2/1 52/3/1 51/4/1
f 51/1/2 52/2/2 56/3/2 55/5/2
f 55/1/3 56/2/3 54/3/3 53/5/3
f 53/1/4 54/2/4 50/3/4 49/5/4
f 51/20/5 55/16/5 53/8/5 49/9/5
f 56/10/6 52/11/6 50/2/6 54/3/6
f 57/12/7 58/13/7 60/14/7 59/15/7
f 61/12/8 62/13/8 64/14/8 63/15/8
o Fire_4
v -0.200444 -0.156250 0.137944
v -0.200444 -0.031250 0.137944
v -0.112056 -0.156250 0.049556
v -0.112056 -0.031250 0.049556
v -0.200444 -0.156250 0.049556
v -0.200444 -0.031250 0.049556
v -0.112056 -0.156250 0.137944
v -0.112056 -0.031250 0.137944
v -0.012944 -0.093750 0.200444
v -0.012944 0.031250 0.200444
v 0.075444 -0.093750 0.112056
v 0.075444 0.031250 0.112056
v -0.012944 -0.093750 0.112056
v -0.012944 0.031250 0.112056
v 0.075444 -0.093750 0.200444
v 0.075444 0.031250 0.200444
v -0.106694 -0.281250 -0.049556
v -0.106694 -0.156250 -0.049556
v -0.018306 -0.281250 -0.137944
v -0.018306 -0.156250 -0.137944
v -0.106694 -0.281250 -0.137944
v -0.106694 -0.156250 -0.137944
v -0.018306 -0.281250 -0.049556
v -0.018306 -0.156250 -0.049556
v 0.080806 -0.156250 -0.075444
v 0.080806 -0.031250 -0.075444
v 0.169194 -0.156250 0.012944
v 0.169194 -0.031250 0.012944
v 0.080806 -0.156250 0.012944
v 0.080806 -0.031250 0.012944
v 0.169194 -0.156250 -0.075444
v 0.169194 -0.031250 -0.075444
vn -0.7071 -0.0000 -0.7071
vn 0.7071 -0.0000 -0.7071
vt 1.000000 0.000000
vt 1.000000 1.000000
vt 0.000000 1.000000
vt 0.000000 0.000000
s 0
g Fire_4_Fire
usemtl Fire
f 65/21/10 66/22/10 68/23/10 67/24/10
f 69/21/11 70/22/11 72/23/11 71/24/11
f 73/21/10 74/22/10 76/23/10 75/24/10
f 77/21/11 78/22/11 80/23/11 79/24/11
f 81/21/10 82/22/10 84/23/10 83/24/10
f 85/21/11 86/22/11 88/23/11 87/24/11
f 89/21/11 90/22/11 92/23/11 91/24/11
f 93/21/10 94/22/10 96/23/10 95/24/10
