# Blender 3.4.1
# www.blender.org
mtllib mcl_signs_sign_hanging.mtl
o Plane
v 0.388533 0.495166 0.066291
v 0.388533 0.056781 0.066291
v 0.255951 0.056781 -0.066291
v 0.255951 0.495166 -0.066291
v 0.255951 0.495166 0.066291
v 0.255951 0.056781 0.066291
v 0.388533 0.056781 -0.066291
v 0.388533 0.495166 -0.066291
vn 0.7071 -0.0000 -0.7071
vn 0.7071 -0.0000 0.7071
vt 0.745347 0.490697
vt 0.745347 0.949534
vt 0.659315 0.949534
vt 0.659315 0.490697
vt 0.572824 0.949535
vt 0.572824 0.490697
vt 0.658856 0.490697
vt 0.658856 0.949535
s 1
usemtl None
f 1/1/1 2/2/1 3/3/1 4/4/1
f 5/5/2 6/6/2 7/7/2 8/8/2
o Plane.001
v -0.255050 0.489844 0.066291
v -0.255050 0.057274 0.066291
v -0.387632 0.057274 -0.066291
v -0.387632 0.489844 -0.066291
v -0.387632 0.489844 0.066291
v -0.387632 0.057274 0.066291
v -0.255050 0.057274 -0.066291
v -0.255050 0.489844 -0.066291
vn 0.7071 -0.0000 -0.7071
vn 0.7071 -0.0000 0.7071
vt 0.917184 0.490697
vt 0.917184 0.946480
vt 0.831725 0.946480
vt 0.831725 0.490697
vt 0.745806 0.946481
vt 0.745807 0.490697
vt 0.831266 0.490697
vt 0.831266 0.946481
s 1
usemtl None
f 9/9/3 10/10/3 11/11/3 12/12/3
f 13/13/4 14/14/4 15/15/4 16/16/4
o wood_Cube.001
v 0.496842 -0.442532 -0.042577
v 0.496842 0.057454 -0.042577
v 0.496842 0.057454 0.040754
v 0.496842 -0.442532 0.040754
v -0.503128 0.057454 0.040754
v -0.503128 -0.442532 0.040754
v -0.503128 0.057454 -0.042577
v -0.503128 -0.442532 -0.042577
vn 1.0000 -0.0000 -0.0000
vn -0.0000 -0.0000 1.0000
vn -1.0000 -0.0000 -0.0000
vn -0.0000 -0.0000 -1.0000
vn -0.0000 -1.0000 -0.0000
vn -0.0000 1.0000 -0.0000
vt 0.917643 0.980706
vt 0.000229 0.000229
vt 0.572366 0.490697
vt 0.917643 0.490697
vt 0.000229 0.490238
vt 0.958477 0.490697
vt 0.980706 0.490238
vt 0.000229 0.571907
vt 0.958477 0.980706
vt 0.980706 0.000229
vt 0.490697 0.490697
vt 0.490697 0.490238
vt 0.999770 0.980706
vt 0.490238 0.571907
vt 0.490697 0.000229
vt 0.999771 0.490697
vt 0.490697 0.980705
vt 0.958936 0.980706
vt 0.490238 0.490238
vt 0.958936 0.490697
vt 0.490238 0.000229
vt 0.572366 0.980705
s 1
usemtl None
f 17/17/5 18/20/5 19/22/5 20/25/5
f 20/26/6 19/23/6 21/28/6 22/31/6
f 22/32/7 21/29/7 23/34/7 24/36/7
f 24/37/8 23/35/8 18/21/8 17/18/8
f 20/27/9 22/33/9 24/38/9 17/19/9
f 21/30/10 19/24/10 18/21/10 23/35/10
