# Made in Blockbench 4.12.3
mtllib wildflower_2.mtl

g first_material
v -0.5 -0.313125 0
v 0 -0.313125 0
v 0 -0.313125 -0.5
v -0.5 -0.313125 -0.5
v -0.5 -0.313125 -0.5
v 0 -0.313125 -0.5
v 0 -0.313125 0
v -0.5 -0.313125 0
vt 0 0.5
vt 0.5 0.5
vt 0.5 1
vt 0 1
vt 0 1
vt 0 1
vt 0 1
vt 0 1
vn 0 1 0
vn 0 -1 0
f 1/1/1 2/2/1 3/3/1 4/4/1
f 5/5/2 6/6/2 7/7/2 8/8/2
v -0.5 -0.4375 0.5
v 0 -0.4375 0.5
v 0 -0.4375 0
v -0.5 -0.4375 0
v -0.5 -0.4375 0
v 0 -0.4375 0
v 0 -0.4375 0.5
v -0.5 -0.4375 0.5
vt 0 0
vt 0.5 0
vt 0.5 0.5
vt 0 0.5
vt 0 0
vt 0 0
vt 0 0
vt 0 0
vn 0 1 0
vn 0 -1 0
f 9/9/3 10/10/3 11/11/3 12/12/3
f 13/13/4 14/14/4 15/15/4 16/16/4
g second_material
o cube
v -0.07573593128807149 -0.5 -0.07131651390565552
v -0.11993010511223073 -0.5 -0.11551068772981476
v -0.11993010511223073 -0.313125 -0.11551068772981476
v -0.07573593128807149 -0.313125 -0.07131651390565552
v -0.11993010511223073 -0.5 -0.11551068772981476
v -0.07573593128807149 -0.5 -0.07131651390565552
v -0.07573593128807149 -0.313125 -0.07131651390565552
v -0.11993010511223073 -0.313125 -0.11551068772981476
vt 0 0.5625
vt 0.0625 0.5625
vt 0.0625 0.75
vt 0 0.75
vt 0 0.5625
vt 0.0625 0.5625
vt 0.0625 0.75
vt 0 0.75
vn 0.7071067811865476 0 -0.7071067811865476
vn -0.7071067811865476 0 0.7071067811865476
f 17/17/5 18/18/5 19/19/5 20/20/5
f 21/21/6 22/22/6 23/23/6 24/24/6
o cube
v -0.19726990930450938 -0.5 -0.3828854393659781
v -0.24146408312866857 -0.5 -0.42707961319013726
v -0.24146408312866857 -0.313125 -0.42707961319013726
v -0.19726990930450938 -0.313125 -0.3828854393659781
v -0.24146408312866857 -0.5 -0.42707961319013726
v -0.19726990930450938 -0.5 -0.3828854393659781
v -0.19726990930450938 -0.313125 -0.3828854393659781
v -0.24146408312866857 -0.313125 -0.42707961319013726
vt 0 0.5625
vt 0.0625 0.5625
vt 0.0625 0.75
vt 0 0.75
vt 0 0.5625
vt 0.0625 0.5625
vt 0.0625 0.75
vt 0 0.75
vn 0.7071067811865476 0 -0.7071067811865476
vn -0.7071067811865476 0 0.7071067811865476
usemtl m_eb18e7d5-e04c-401d-23a9-859d206941a0
f 25/25/7 26/26/7 27/27/7 28/28/7
f 29/29/8 30/30/8 31/31/8 32/32/8
o cube
v -0.38509514805718603 -0.5 -0.1376077746418944
v -0.4292893218813453 -0.5 -0.18180194846605358
v -0.4292893218813453 -0.313125 -0.18180194846605358
v -0.38509514805718603 -0.313125 -0.1376077746418944
v -0.4292893218813453 -0.5 -0.18180194846605358
v -0.38509514805718603 -0.5 -0.1376077746418944
v -0.38509514805718603 -0.313125 -0.1376077746418944
v -0.4292893218813453 -0.313125 -0.18180194846605358
vt 0 0.5625
vt 0.0625 0.5625
vt 0.0625 0.75
vt 0 0.75
vt 0 0.5625
vt 0.0625 0.5625
vt 0.0625 0.75
vt 0 0.75
vn 0.7071067811865471 0 -0.707106781186548
vn -0.7071067811865471 0 0.707106781186548
usemtl m_eb18e7d5-e04c-401d-23a9-859d206941a0
f 33/33/9 34/34/9 35/35/9 36/36/9
f 37/37/10 38/38/10 39/39/10 40/40/10
o cube
v -0.4292893218813453 -0.5 -0.1376077746418944
v -0.38509514805718603 -0.5 -0.18180194846605363
v -0.38509514805718603 -0.313125 -0.18180194846605363
v -0.4292893218813453 -0.313125 -0.1376077746418944
v -0.38509514805718603 -0.5 -0.18180194846605363
v -0.4292893218813453 -0.5 -0.1376077746418944
v -0.4292893218813453 -0.313125 -0.1376077746418944
v -0.38509514805718603 -0.313125 -0.18180194846605363
vt 0 0.5625
vt 0.0625 0.5625
vt 0.0625 0.75
vt 0 0.75
vt 0 0.5625
vt 0.0625 0.5625
vt 0.0625 0.75
vt 0 0.75
vn 0.7071067811865476 0 0.7071067811865476
vn -0.7071067811865476 0 -0.7071067811865476
usemtl m_eb18e7d5-e04c-401d-23a9-859d206941a0
f 41/41/11 42/42/11 43/43/11 44/44/11
f 45/45/12 46/46/12 47/47/12 48/48/12
o cube
o cube
v -0.11993010511223073 -0.5 -0.07131651390565552
v -0.07573593128807149 -0.5 -0.11551068772981476
v -0.07573593128807149 -0.313125 -0.11551068772981476
v -0.11993010511223073 -0.313125 -0.07131651390565552
v -0.07573593128807149 -0.5 -0.11551068772981476
v -0.11993010511223073 -0.5 -0.07131651390565552
v -0.11993010511223073 -0.313125 -0.07131651390565552
v -0.07573593128807149 -0.313125 -0.11551068772981476
vt 0 0.5625
vt 0.0625 0.5625
vt 0.0625 0.75
vt 0 0.75
vt 0 0.5625
vt 0.0625 0.5625
vt 0.0625 0.75
vt 0 0.75
vn 0.7071067811865476 0 0.7071067811865476
vn -0.7071067811865476 0 -0.7071067811865476
usemtl m_eb18e7d5-e04c-401d-23a9-859d206941a0
f 49/49/13 50/50/13 51/51/13 52/52/13
f 53/53/14 54/54/14 55/55/14 56/56/14
o second_material
v -0.24146408312866857 -0.5 -0.3828854393659781
v -0.19726990930450933 -0.5 -0.42707961319013726
v -0.19726990930450933 -0.313125 -0.42707961319013726
v -0.24146408312866857 -0.313125 -0.3828854393659781
v -0.19726990930450933 -0.5 -0.42707961319013726
v -0.24146408312866857 -0.5 -0.3828854393659781
v -0.24146408312866857 -0.313125 -0.3828854393659781
v -0.19726990930450933 -0.313125 -0.42707961319013726
vt 0 0.5625
vt 0.0625 0.5625
vt 0.0625 0.75
vt 0 0.75
vt 0 0.5625
vt 0.0625 0.5625
vt 0.0625 0.75
vt 0 0.75
vn 0.7071067811865471 0 0.707106781186548
vn -0.7071067811865471 0 -0.707106781186548
usemtl m_eb18e7d5-e04c-401d-23a9-859d206941a0
f 57/57/15 58/58/15 59/59/15 60/60/15
f 61/61/16 62/62/16 63/63/16 64/64/16
o cube
o cube
o cube
v -0.19506020061330143 -0.5 0.24309027689205198
v -0.23925437443746062 -0.5 0.19889610306789285
v -0.23925437443746062 -0.4375 0.19889610306789285
v -0.19506020061330143 -0.4375 0.24309027689205198
v -0.23925437443746062 -0.5 0.19889610306789285
v -0.19506020061330143 -0.5 0.24309027689205198
v -0.19506020061330143 -0.4375 0.24309027689205198
v -0.23925437443746062 -0.4375 0.19889610306789285
vt 0 0.5625
vt 0.0625 0.5625
vt 0.0625 0.625
vt 0 0.625
vt 0 0.5625
vt 0.0625 0.5625
vt 0.0625 0.625
vt 0 0.625
vn 0.7071067811865471 0 -0.707106781186548
vn -0.7071067811865471 0 0.707106781186548
usemtl m_eb18e7d5-e04c-401d-23a9-859d206941a0
f 65/65/17 66/66/17 67/67/17 68/68/17
f 69/69/18 70/70/18 71/71/18 72/72/18
o second_material
v -0.23925437443746067 -0.5 0.24309027689205198
v -0.19506020061330143 -0.5 0.19889610306789285
v -0.19506020061330143 -0.4375 0.19889610306789285
v -0.23925437443746067 -0.4375 0.24309027689205198
v -0.19506020061330143 -0.5 0.19889610306789285
v -0.23925437443746067 -0.5 0.24309027689205198
v -0.23925437443746067 -0.4375 0.24309027689205198
v -0.19506020061330143 -0.4375 0.19889610306789285
vt 0 0.5625
vt 0.0625 0.5625
vt 0.0625 0.625
vt 0 0.625
vt 0 0.5625
vt 0.0625 0.5625
vt 0.0625 0.625
vt 0 0.625
vn 0.7071067811865467 0 0.7071067811865485
vn -0.7071067811865467 0 -0.7071067811865485
usemtl m_eb18e7d5-e04c-401d-23a9-859d206941a0
f 73/73/19 74/74/19 75/75/19 76/76/19
f 77/77/20 78/78/20 79/79/20 80/80/20
o cube
