# Made in Blockbench 4.12.3
mtllib wildflower_3.mtl

g first_material
v 0 -0.375 0.5
v 0.5 -0.375 0.5
v 0.5 -0.375 0
v 0 -0.375 0
v 0 -0.375 0
v 0.5 -0.375 0
v 0.5 -0.375 0.5
v 0 -0.375 0.5
vt 0.5 0
vt 1 0
vt 1 0.5
vt 0.5 0.5
vt 1 0
vt 1 0
vt 1 0
vt 1 0
vn 0 1 0
vn 0 -1 0
f 1/1/1 2/2/1 3/3/1 4/4/1
f 5/5/2 6/6/2 7/7/2 8/8/2
v -0.5 -0.313125 0
v 0 -0.313125 0
v 0 -0.313125 -0.5
v -0.5 -0.313125 -0.5
v -0.5 -0.313125 -0.5
v 0 -0.313125 -0.5
v 0 -0.313125 0
v -0.5 -0.313125 0
vt 0 0.5
vt 0.5 0.5
vt 0.5 1
vt 0 1
vt 0 1
vt 0 1
vt 0 1
vt 0 1
vn 0 1 0
vn 0 -1 0
f 9/9/3 10/10/3 11/11/3 12/12/3
f 13/13/4 14/14/4 15/15/4 16/16/4
v -0.5 -0.4375 0.5
v 0 -0.4375 0.5
v 0 -0.4375 0
v -0.5 -0.4375 0
v -0.5 -0.4375 0
v 0 -0.4375 0
v 0 -0.4375 0.5
v -0.5 -0.4375 0.5
vt 0 0
vt 0.5 0
vt 0.5 0.5
vt 0 0.5
vt 0 0
vt 0 0
vt 0 0
vt 0 0
vn 0 1 0
vn 0 -1 0
f 17/17/5 18/18/5 19/19/5 20/20/5
f 21/21/6 22/22/6 23/23/6 24/24/6
g second_material
o cube
v 0.42807765030734346 -0.5 0.17617085950963607
v 0.3838834764831842 -0.5 0.13197668568547682
v 0.3838834764831842 -0.375 0.13197668568547682
v 0.42807765030734346 -0.375 0.17617085950963607
v 0.3838834764831842 -0.5 0.13197668568547682
v 0.42807765030734346 -0.5 0.17617085950963607
v 0.42807765030734346 -0.375 0.17617085950963607
v 0.3838834764831842 -0.375 0.13197668568547682
vt 0 0.5625
vt 0.0625 0.5625
vt 0.0625 0.6875
vt 0 0.6875
vt 0 0.5625
vt 0.0625 0.5625
vt 0.0625 0.6875
vt 0 0.6875
vn 0.7071067811865476 0 -0.7071067811865476
vn -0.7071067811865476 0 0.7071067811865476
usemtl m_0f37fcfd-6e44-7973-5aa2-29ebf2b0bedd
f 25/25/7 26/26/7 27/27/7 28/28/7
f 29/29/8 30/30/8 31/31/8 32/32/8
o cube
v 0.07010484233165393 -0.5 0.11429901615581317
v 0.11429901615581306 -0.5 0.07010484233165404
v 0.11429901615581306 -0.375 0.07010484233165404
v 0.07010484233165393 -0.375 0.11429901615581317
v 0.11429901615581306 -0.5 0.07010484233165404
v 0.07010484233165393 -0.5 0.11429901615581317
v 0.07010484233165393 -0.375 0.11429901615581317
v 0.11429901615581306 -0.375 0.07010484233165404
vt 0 0.5625
vt 0.0625 0.5625
vt 0.0625 0.6875
vt 0 0.6875
vt 0 0.5625
vt 0.0625 0.5625
vt 0.0625 0.6875
vt 0 0.6875
vn 0.7071067811865476 0 0.7071067811865476
vn -0.7071067811865476 0 -0.7071067811865476
usemtl m_0f37fcfd-6e44-7973-5aa2-29ebf2b0bedd
f 33/33/9 34/34/9 35/35/9 36/36/9
f 37/37/10 38/38/10 39/39/10 40/40/10
o cube
v 0.22730823773050757 -0.5 0.3952460982623127
v 0.2715024115546668 -0.5 0.3510519244381536
v 0.2715024115546668 -0.375 0.3510519244381536
v 0.22730823773050757 -0.375 0.3952460982623127
v 0.2715024115546668 -0.5 0.3510519244381536
v 0.22730823773050757 -0.5 0.3952460982623127
v 0.22730823773050757 -0.375 0.3952460982623127
v 0.2715024115546668 -0.375 0.3510519244381536
vt 0 0.5625
vt 0.0625 0.5625
vt 0.0625 0.6875
vt 0 0.6875
vt 0 0.5625
vt 0.0625 0.5625
vt 0.0625 0.6875
vt 0 0.6875
vn 0.7071067811865467 0 0.7071067811865485
vn -0.7071067811865467 0 -0.7071067811865485
usemtl m_0f37fcfd-6e44-7973-5aa2-29ebf2b0bedd
f 41/41/11 42/42/11 43/43/11 44/44/11
f 45/45/12 46/46/12 47/47/12 48/48/12
o cube
v 0.2715024115546668 -0.5 0.3952460982623127
v 0.22730823773050757 -0.5 0.3510519244381535
v 0.22730823773050757 -0.375 0.3510519244381535
v 0.2715024115546668 -0.375 0.3952460982623127
v 0.22730823773050757 -0.5 0.3510519244381535
v 0.2715024115546668 -0.5 0.3952460982623127
v 0.2715024115546668 -0.375 0.3952460982623127
v 0.22730823773050757 -0.375 0.3510519244381535
vt 0 0.5625
vt 0.0625 0.5625
vt 0.0625 0.6875
vt 0 0.6875
vt 0 0.5625
vt 0.0625 0.5625
vt 0.0625 0.6875
vt 0 0.6875
vn 0.7071067811865476 0 -0.7071067811865476
vn -0.7071067811865476 0 0.7071067811865476
usemtl m_0f37fcfd-6e44-7973-5aa2-29ebf2b0bedd
f 49/49/13 50/50/13 51/51/13 52/52/13
f 53/53/14 54/54/14 55/55/14 56/56/14
o cube
v 0.3838834764831843 -0.5 0.17617085950963607
v 0.42807765030734357 -0.5 0.13197668568547694
v 0.42807765030734357 -0.375 0.13197668568547694
v 0.3838834764831843 -0.375 0.17617085950963607
v 0.42807765030734357 -0.5 0.13197668568547694
v 0.3838834764831843 -0.5 0.17617085950963607
v 0.3838834764831843 -0.375 0.17617085950963607
v 0.42807765030734357 -0.375 0.13197668568547694
vt 0 0.5625
vt 0.0625 0.5625
vt 0.0625 0.6875
vt 0 0.6875
vt 0 0.5625
vt 0.0625 0.5625
vt 0.0625 0.6875
vt 0 0.6875
vn 0.7071067811865467 0 0.7071067811865485
vn -0.7071067811865467 0 -0.7071067811865485
usemtl m_0f37fcfd-6e44-7973-5aa2-29ebf2b0bedd
f 57/57/15 58/58/15 59/59/15 60/60/15
f 61/61/16 62/62/16 63/63/16 64/64/16
o cube
v -0.19506020061330143 -0.5 0.24309027689205198
v -0.23925437443746062 -0.5 0.19889610306789285
v -0.23925437443746062 -0.4375 0.19889610306789285
v -0.19506020061330143 -0.4375 0.24309027689205198
v -0.23925437443746062 -0.5 0.19889610306789285
v -0.19506020061330143 -0.5 0.24309027689205198
v -0.19506020061330143 -0.4375 0.24309027689205198
v -0.23925437443746062 -0.4375 0.19889610306789285
vt 0 0.5625
vt 0.0625 0.5625
vt 0.0625 0.625
vt 0 0.625
vt 0 0.5625
vt 0.0625 0.5625
vt 0.0625 0.625
vt 0 0.625
vn 0.7071067811865471 0 -0.707106781186548
vn -0.7071067811865471 0 0.707106781186548
usemtl m_0f37fcfd-6e44-7973-5aa2-29ebf2b0bedd
f 65/65/17 66/66/17 67/67/17 68/68/17
f 69/69/18 70/70/18 71/71/18 72/72/18
o cube
v -0.23925437443746067 -0.5 0.24309027689205198
v -0.19506020061330143 -0.5 0.19889610306789285
v -0.19506020061330143 -0.4375 0.19889610306789285
v -0.23925437443746067 -0.4375 0.24309027689205198
v -0.19506020061330143 -0.5 0.19889610306789285
v -0.23925437443746067 -0.5 0.24309027689205198
v -0.23925437443746067 -0.4375 0.24309027689205198
v -0.19506020061330143 -0.4375 0.19889610306789285
vt 0 0.5625
vt 0.0625 0.5625
vt 0.0625 0.625
vt 0 0.625
vt 0 0.5625
vt 0.0625 0.5625
vt 0.0625 0.625
vt 0 0.625
vn 0.7071067811865467 0 0.7071067811865485
vn -0.7071067811865467 0 -0.7071067811865485
usemtl m_0f37fcfd-6e44-7973-5aa2-29ebf2b0bedd
f 73/73/19 74/74/19 75/75/19 76/76/19
f 77/77/20 78/78/20 79/79/20 80/80/20
o cube
v -0.07573593128807149 -0.5 -0.07131651390565552
v -0.11993010511223073 -0.5 -0.11551068772981476
v -0.11993010511223073 -0.313125 -0.11551068772981476
v -0.07573593128807149 -0.313125 -0.07131651390565552
v -0.11993010511223073 -0.5 -0.11551068772981476
v -0.07573593128807149 -0.5 -0.07131651390565552
v -0.07573593128807149 -0.313125 -0.07131651390565552
v -0.11993010511223073 -0.313125 -0.11551068772981476
vt 0 0.5625
vt 0.0625 0.5625
vt 0.0625 0.75
vt 0 0.75
vt 0 0.5625
vt 0.0625 0.5625
vt 0.0625 0.75
vt 0 0.75
vn 0.7071067811865476 0 -0.7071067811865476
vn -0.7071067811865476 0 0.7071067811865476
usemtl m_0f37fcfd-6e44-7973-5aa2-29ebf2b0bedd
f 81/81/21 82/82/21 83/83/21 84/84/21
f 85/85/22 86/86/22 87/87/22 88/88/22
o cube
v -0.11993010511223073 -0.5 -0.07131651390565552
v -0.07573593128807149 -0.5 -0.11551068772981476
v -0.07573593128807149 -0.313125 -0.11551068772981476
v -0.11993010511223073 -0.313125 -0.07131651390565552
v -0.07573593128807149 -0.5 -0.11551068772981476
v -0.11993010511223073 -0.5 -0.07131651390565552
v -0.11993010511223073 -0.313125 -0.07131651390565552
v -0.07573593128807149 -0.313125 -0.11551068772981476
vt 0 0.5625
vt 0.0625 0.5625
vt 0.0625 0.75
vt 0 0.75
vt 0 0.5625
vt 0.0625 0.5625
vt 0.0625 0.75
vt 0 0.75
vn 0.7071067811865476 0 0.7071067811865476
vn -0.7071067811865476 0 -0.7071067811865476
usemtl m_0f37fcfd-6e44-7973-5aa2-29ebf2b0bedd
f 89/89/23 90/90/23 91/91/23 92/92/23
f 93/93/24 94/94/24 95/95/24 96/96/24
o cube
v 0.11429901615581317 -0.5 0.11429901615581317
v 0.07010484233165393 -0.5 0.07010484233165404
v 0.07010484233165393 -0.375 0.07010484233165404
v 0.11429901615581317 -0.375 0.11429901615581317
v 0.07010484233165393 -0.5 0.07010484233165404
v 0.11429901615581317 -0.5 0.11429901615581317
v 0.11429901615581317 -0.375 0.11429901615581317
v 0.07010484233165393 -0.375 0.07010484233165404
vt 0 0.5625
vt 0.0625 0.5625
vt 0.0625 0.6875
vt 0 0.6875
vt 0 0.5625
vt 0.0625 0.5625
vt 0.0625 0.6875
vt 0 0.6875
vn 0.7071067811865467 0 -0.7071067811865485
vn -0.7071067811865467 0 0.7071067811865485
usemtl m_0f37fcfd-6e44-7973-5aa2-29ebf2b0bedd
f 97/97/25 98/98/25 99/99/25 100/100/25
f 101/101/26 102/102/26 103/103/26 104/104/26
o cube
v -0.4292893218813453 -0.5 -0.1376077746418944
v -0.38509514805718603 -0.5 -0.18180194846605363
v -0.38509514805718603 -0.313125 -0.18180194846605363
v -0.4292893218813453 -0.313125 -0.1376077746418944
v -0.38509514805718603 -0.5 -0.18180194846605363
v -0.4292893218813453 -0.5 -0.1376077746418944
v -0.4292893218813453 -0.313125 -0.1376077746418944
v -0.38509514805718603 -0.313125 -0.18180194846605363
vt 0 0.5625
vt 0.0625 0.5625
vt 0.0625 0.75
vt 0 0.75
vt 0 0.5625
vt 0.0625 0.5625
vt 0.0625 0.75
vt 0 0.75
vn 0.7071067811865476 0 0.7071067811865476
vn -0.7071067811865476 0 -0.7071067811865476
usemtl m_0f37fcfd-6e44-7973-5aa2-29ebf2b0bedd
f 105/105/27 106/106/27 107/107/27 108/108/27
f 109/109/28 110/110/28 111/111/28 112/112/28
o cube
v -0.38509514805718603 -0.5 -0.1376077746418944
v -0.4292893218813453 -0.5 -0.18180194846605358
v -0.4292893218813453 -0.313125 -0.18180194846605358
v -0.38509514805718603 -0.313125 -0.1376077746418944
v -0.4292893218813453 -0.5 -0.18180194846605358
v -0.38509514805718603 -0.5 -0.1376077746418944
v -0.38509514805718603 -0.313125 -0.1376077746418944
v -0.4292893218813453 -0.313125 -0.18180194846605358
vt 0 0.5625
vt 0.0625 0.5625
vt 0.0625 0.75
vt 0 0.75
vt 0 0.5625
vt 0.0625 0.5625
vt 0.0625 0.75
vt 0 0.75
vn 0.7071067811865471 0 -0.707106781186548
vn -0.7071067811865471 0 0.707106781186548
usemtl m_0f37fcfd-6e44-7973-5aa2-29ebf2b0bedd
f 113/113/29 114/114/29 115/115/29 116/116/29
f 117/117/30 118/118/30 119/119/30 120/120/30
o cube
o cube
v -0.19726990930450938 -0.5 -0.3828854393659781
v -0.24146408312866857 -0.5 -0.42707961319013726
v -0.24146408312866857 -0.313125 -0.42707961319013726
v -0.19726990930450938 -0.313125 -0.3828854393659781
v -0.24146408312866857 -0.5 -0.42707961319013726
v -0.19726990930450938 -0.5 -0.3828854393659781
v -0.19726990930450938 -0.313125 -0.3828854393659781
v -0.24146408312866857 -0.313125 -0.42707961319013726
vt 0 0.5625
vt 0.0625 0.5625
vt 0.0625 0.75
vt 0 0.75
vt 0 0.5625
vt 0.0625 0.5625
vt 0.0625 0.75
vt 0 0.75
vn 0.7071067811865476 0 -0.7071067811865476
vn -0.7071067811865476 0 0.7071067811865476
usemtl m_0f37fcfd-6e44-7973-5aa2-29ebf2b0bedd
f 121/121/31 122/122/31 123/123/31 124/124/31
f 125/125/32 126/126/32 127/127/32 128/128/32
o second_material
v -0.24146408312866857 -0.5 -0.3828854393659781
v -0.19726990930450933 -0.5 -0.42707961319013726
v -0.19726990930450933 -0.313125 -0.42707961319013726
v -0.24146408312866857 -0.313125 -0.3828854393659781
v -0.19726990930450933 -0.5 -0.42707961319013726
v -0.24146408312866857 -0.5 -0.3828854393659781
v -0.24146408312866857 -0.313125 -0.3828854393659781
v -0.19726990930450933 -0.313125 -0.42707961319013726
vt 0 0.5625
vt 0.0625 0.5625
vt 0.0625 0.75
vt 0 0.75
vt 0 0.5625
vt 0.0625 0.5625
vt 0.0625 0.75
vt 0 0.75
vn 0.7071067811865471 0 0.707106781186548
vn -0.7071067811865471 0 -0.707106781186548
usemtl m_0f37fcfd-6e44-7973-5aa2-29ebf2b0bedd
f 129/129/33 130/130/33 131/131/33 132/132/33
f 133/133/34 134/134/34 135/135/34 136/136/34
o cube
