# Made in Blockbench 4.12.2
mtllib wildflower_2.mtl

o cube
v 0 -0.313125 0
v 0 -0.313125 -0.5
v 0 -0.313125 0
v 0 -0.313125 -0.5
v -0.5 -0.313125 -0.5
v -0.5 -0.313125 0
v -0.5 -0.313125 -0.5
v -0.5 -0.313125 0
vt 0 1
vt 0.5 1
vt 0.5 0.5
vt 0 0.5
vt 0 1
vt 0 1
vt 0 1
vt 0 1
vn 0 1 0
vn 0 -1 0
usemtl m_a2007791-e96d-5be4-dbd7-0839c41b6f82
f 6/4/1 1/3/1 2/2/1 5/1/1
f 7/8/2 4/7/2 3/6/2 8/5/2
o cube
v -0.24146408312866857 -0.313125 -0.3828854393659781
v -0.19726990930450933 -0.313125 -0.42707961319013726
v -0.24146408312866857 -0.5 -0.3828854393659781
v -0.19726990930450933 -0.5 -0.42707961319013726
v -0.19726990930450933 -0.313125 -0.42707961319013726
v -0.24146408312866857 -0.313125 -0.3828854393659781
v -0.19726990930450933 -0.5 -0.42707961319013726
v -0.24146408312866857 -0.5 -0.3828854393659781
vt 0 0.75
vt 0.0625 0.75
vt 0.0625 0.5625
vt 0 0.5625
vt 0 0.75
vt 0.0625 0.75
vt 0.0625 0.5625
vt 0 0.5625
vn 0.7071067811865475 0 0.7071067811865476
vn -0.7071067811865475 0 -0.7071067811865476
usemtl m_b124f324-2f45-d31b-cd76-980d5c2dab5d
f 11/12/3 12/11/3 10/10/3 9/9/3
f 15/16/4 16/15/4 14/14/4 13/13/4
o cube
v -0.19726990930450938 -0.313125 -0.3828854393659781
v -0.19726990930450938 -0.313125 -0.3828854393659781
v -0.19726990930450938 -0.5 -0.3828854393659781
v -0.19726990930450938 -0.5 -0.3828854393659781
v -0.24146408312866857 -0.313125 -0.42707961319013726
v -0.24146408312866857 -0.313125 -0.42707961319013726
v -0.24146408312866857 -0.5 -0.42707961319013726
v -0.24146408312866857 -0.5 -0.42707961319013726
vt 0 0.75
vt 0.0625 0.75
vt 0.0625 0.5625
vt 0 0.5625
vt 0 0.75
vt 0.0625 0.75
vt 0.0625 0.5625
vt 0 0.5625
vn 0.7071067811865476 0 -0.7071067811865475
vn -0.7071067811865476 0 0.7071067811865475
usemtl m_b124f324-2f45-d31b-cd76-980d5c2dab5d
f 20/20/5 23/19/5 21/18/5 18/17/5
f 24/24/6 19/23/6 17/22/6 22/21/6
o cube
v -0.4292893218813453 -0.313125 -0.1376077746418944
v -0.38509514805718603 -0.313125 -0.18180194846605363
v -0.4292893218813453 -0.5 -0.1376077746418944
v -0.38509514805718603 -0.5 -0.18180194846605363
v -0.38509514805718603 -0.313125 -0.18180194846605363
v -0.4292893218813453 -0.313125 -0.1376077746418944
v -0.38509514805718603 -0.5 -0.18180194846605363
v -0.4292893218813453 -0.5 -0.1376077746418944
vt 0 0.75
vt 0.0625 0.75
vt 0.0625 0.5625
vt 0 0.5625
vt 0 0.75
vt 0.0625 0.75
vt 0.0625 0.5625
vt 0 0.5625
vn 0.7071067811865475 0 0.7071067811865476
vn -0.7071067811865475 0 -0.7071067811865476
usemtl m_b124f324-2f45-d31b-cd76-980d5c2dab5d
f 27/28/7 28/27/7 26/26/7 25/25/7
f 31/32/8 32/31/8 30/30/8 29/29/8
o cube
v -0.38509514805718603 -0.313125 -0.1376077746418944
v -0.38509514805718603 -0.313125 -0.1376077746418944
v -0.38509514805718603 -0.5 -0.1376077746418944
v -0.38509514805718603 -0.5 -0.1376077746418944
v -0.4292893218813453 -0.313125 -0.18180194846605358
v -0.4292893218813453 -0.313125 -0.18180194846605358
v -0.4292893218813453 -0.5 -0.18180194846605358
v -0.4292893218813453 -0.5 -0.18180194846605358
vt 0 0.75
vt 0.0625 0.75
vt 0.0625 0.5625
vt 0 0.5625
vt 0 0.75
vt 0.0625 0.75
vt 0.0625 0.5625
vt 0 0.5625
vn 0.7071067811865476 0 -0.7071067811865475
vn -0.7071067811865476 0 0.7071067811865475
usemtl m_b124f324-2f45-d31b-cd76-980d5c2dab5d
f 36/36/9 39/35/9 37/34/9 34/33/9
f 40/40/10 35/39/10 33/38/10 38/37/10
o cube
v -0.11993010511223073 -0.313125 -0.07131651390565552
v -0.07573593128807149 -0.313125 -0.11551068772981476
v -0.11993010511223073 -0.5 -0.07131651390565552
v -0.07573593128807149 -0.5 -0.11551068772981476
v -0.07573593128807149 -0.313125 -0.11551068772981476
v -0.11993010511223073 -0.313125 -0.07131651390565552
v -0.07573593128807149 -0.5 -0.11551068772981476
v -0.11993010511223073 -0.5 -0.07131651390565552
vt 0 0.75
vt 0.0625 0.75
vt 0.0625 0.5625
vt 0 0.5625
vt 0 0.75
vt 0.0625 0.75
vt 0.0625 0.5625
vt 0 0.5625
vn 0.7071067811865475 0 0.7071067811865476
vn -0.7071067811865475 0 -0.7071067811865476
usemtl m_b124f324-2f45-d31b-cd76-980d5c2dab5d
f 43/44/11 44/43/11 42/42/11 41/41/11
f 47/48/12 48/47/12 46/46/12 45/45/12
o cube
v -0.07573593128807149 -0.313125 -0.07131651390565552
v -0.07573593128807149 -0.313125 -0.07131651390565552
v -0.07573593128807149 -0.5 -0.07131651390565552
v -0.07573593128807149 -0.5 -0.07131651390565552
v -0.11993010511223073 -0.313125 -0.11551068772981476
v -0.11993010511223073 -0.313125 -0.11551068772981476
v -0.11993010511223073 -0.5 -0.11551068772981476
v -0.11993010511223073 -0.5 -0.11551068772981476
vt 0 0.75
vt 0.0625 0.75
vt 0.0625 0.5625
vt 0 0.5625
vt 0 0.75
vt 0.0625 0.75
vt 0.0625 0.5625
vt 0 0.5625
vn 0.7071067811865476 0 -0.7071067811865475
vn -0.7071067811865476 0 0.7071067811865475
usemtl m_b124f324-2f45-d31b-cd76-980d5c2dab5d
f 52/52/13 55/51/13 53/50/13 50/49/13
f 56/56/14 51/55/14 49/54/14 54/53/14
o cube
v 0 -0.4375 0.5
v 0 -0.4375 0
v 0 -0.4375 0.5
v 0 -0.4375 0
v -0.5 -0.4375 0
v -0.5 -0.4375 0.5
v -0.5 -0.4375 0
v -0.5 -0.4375 0.5
vt 0 0.5
vt 0.5 0.5
vt 0.5 0
vt 0 0
vt 0 0
vt 0 0
vt 0 0
vt 0 0
vn 0 1 0
vn 0 -1 0
usemtl m_a2007791-e96d-5be4-dbd7-0839c41b6f82
f 62/60/15 57/59/15 58/58/15 61/57/15
f 63/64/16 60/63/16 59/62/16 64/61/16
o cube
v -0.23925437443746067 -0.4375 0.24309027689205198
v -0.19506020061330143 -0.4375 0.19889610306789285
v -0.23925437443746067 -0.5 0.24309027689205198
v -0.19506020061330143 -0.5 0.19889610306789285
v -0.19506020061330143 -0.4375 0.19889610306789285
v -0.23925437443746067 -0.4375 0.24309027689205198
v -0.19506020061330143 -0.5 0.19889610306789285
v -0.23925437443746067 -0.5 0.24309027689205198
vt 0 0.625
vt 0.0625 0.625
vt 0.0625 0.5625
vt 0 0.5625
vt 0 0.625
vt 0.0625 0.625
vt 0.0625 0.5625
vt 0 0.5625
vn 0.7071067811865475 0 0.7071067811865476
vn -0.7071067811865475 0 -0.7071067811865476
usemtl m_b124f324-2f45-d31b-cd76-980d5c2dab5d
f 67/68/17 68/67/17 66/66/17 65/65/17
f 71/72/18 72/71/18 70/70/18 69/69/18
o cube
v -0.19506020061330143 -0.4375 0.24309027689205198
v -0.19506020061330143 -0.4375 0.24309027689205198
v -0.19506020061330143 -0.5 0.24309027689205198
v -0.19506020061330143 -0.5 0.24309027689205198
v -0.23925437443746062 -0.4375 0.19889610306789285
v -0.23925437443746062 -0.4375 0.19889610306789285
v -0.23925437443746062 -0.5 0.19889610306789285
v -0.23925437443746062 -0.5 0.19889610306789285
vt 0 0.625
vt 0.0625 0.625
vt 0.0625 0.5625
vt 0 0.5625
vt 0 0.625
vt 0.0625 0.625
vt 0.0625 0.5625
vt 0 0.5625
vn 0.7071067811865476 0 -0.7071067811865475
vn -0.7071067811865476 0 0.7071067811865475
usemtl m_b124f324-2f45-d31b-cd76-980d5c2dab5d
f 76/76/19 79/75/19 77/74/19 74/73/19
f 80/80/20 75/79/20 73/78/20 78/77/20