# Made in Blockbench 4.12.2
mtllib flowerbed_1.mtl

o cube
v 0 -0.313125 0
v 0 -0.313125 -0.5
v 0 -0.313125 0
v 0 -0.313125 -0.5
v -0.5 -0.313125 -0.5
v -0.5 -0.313125 0
v -0.5 -0.313125 -0.5
v -0.5 -0.313125 0
vt 0 1
vt 0.5 1
vt 0.5 0.5
vt 0 0.5
vt 0 1
vt 0 1
vt 0 1
vt 0 1
vn 0 1 0
vn 0 -1 0
g first_material
f 6/4/1 1/3/1 2/2/1 5/1/1
f 7/8/2 4/7/2 3/6/2 8/5/2
o cube
v -0.24146408312866857 -0.313125 -0.3828854393659781
v -0.19726990930450933 -0.313125 -0.42707961319013726
v -0.24146408312866857 -0.5 -0.3828854393659781
v -0.19726990930450933 -0.5 -0.42707961319013726
v -0.19726990930450933 -0.313125 -0.42707961319013726
v -0.24146408312866857 -0.313125 -0.3828854393659781
v -0.19726990930450933 -0.5 -0.42707961319013726
v -0.24146408312866857 -0.5 -0.3828854393659781
vt 0 0.75
vt 0.0625 0.75
vt 0.0625 0.5625
vt 0 0.5625
vt 0 0.75
vt 0.0625 0.75
vt 0.0625 0.5625
vt 0 0.5625
vn 0.7071067811865475 0 0.7071067811865476
vn -0.7071067811865475 0 -0.7071067811865476
g second_material
f 11/12/3 12/11/3 10/10/3 9/9/3
f 15/16/4 16/15/4 14/14/4 13/13/4
o cube
v -0.19726990930450938 -0.313125 -0.3828854393659781
v -0.19726990930450938 -0.313125 -0.3828854393659781
v -0.19726990930450938 -0.5 -0.3828854393659781
v -0.19726990930450938 -0.5 -0.3828854393659781
v -0.24146408312866857 -0.313125 -0.42707961319013726
v -0.24146408312866857 -0.313125 -0.42707961319013726
v -0.24146408312866857 -0.5 -0.42707961319013726
v -0.24146408312866857 -0.5 -0.42707961319013726
vt 0 0.75
vt 0.0625 0.75
vt 0.0625 0.5625
vt 0 0.5625
vt 0 0.75
vt 0.0625 0.75
vt 0.0625 0.5625
vt 0 0.5625
vn 0.7071067811865476 0 -0.7071067811865475
vn -0.7071067811865476 0 0.7071067811865475
f 20/20/5 23/19/5 21/18/5 18/17/5
f 24/24/6 19/23/6 17/22/6 22/21/6
o cube
v -0.4292893218813453 -0.313125 -0.1376077746418944
v -0.38509514805718603 -0.313125 -0.18180194846605363
v -0.4292893218813453 -0.5 -0.1376077746418944
v -0.38509514805718603 -0.5 -0.18180194846605363
v -0.38509514805718603 -0.313125 -0.18180194846605363
v -0.4292893218813453 -0.313125 -0.1376077746418944
v -0.38509514805718603 -0.5 -0.18180194846605363
v -0.4292893218813453 -0.5 -0.1376077746418944
vt 0 0.75
vt 0.0625 0.75
vt 0.0625 0.5625
vt 0 0.5625
vt 0 0.75
vt 0.0625 0.75
vt 0.0625 0.5625
vt 0 0.5625
vn 0.7071067811865475 0 0.7071067811865476
vn -0.7071067811865475 0 -0.7071067811865476
f 27/28/7 28/27/7 26/26/7 25/25/7
f 31/32/8 32/31/8 30/30/8 29/29/8
o cube
v -0.38509514805718603 -0.313125 -0.1376077746418944
v -0.38509514805718603 -0.313125 -0.1376077746418944
v -0.38509514805718603 -0.5 -0.1376077746418944
v -0.38509514805718603 -0.5 -0.1376077746418944
v -0.4292893218813453 -0.313125 -0.18180194846605358
v -0.4292893218813453 -0.313125 -0.18180194846605358
v -0.4292893218813453 -0.5 -0.18180194846605358
v -0.4292893218813453 -0.5 -0.18180194846605358
vt 0 0.75
vt 0.0625 0.75
vt 0.0625 0.5625
vt 0 0.5625
vt 0 0.75
vt 0.0625 0.75
vt 0.0625 0.5625
vt 0 0.5625
vn 0.7071067811865476 0 -0.7071067811865475
vn -0.7071067811865476 0 0.7071067811865475
f 36/36/9 39/35/9 37/34/9 34/33/9
f 40/40/10 35/39/10 33/38/10 38/37/10
o cube
v -0.11993010511223073 -0.313125 -0.07131651390565552
v -0.07573593128807149 -0.313125 -0.11551068772981476
v -0.11993010511223073 -0.5 -0.07131651390565552
v -0.07573593128807149 -0.5 -0.11551068772981476
v -0.07573593128807149 -0.313125 -0.11551068772981476
v -0.11993010511223073 -0.313125 -0.07131651390565552
v -0.07573593128807149 -0.5 -0.11551068772981476
v -0.11993010511223073 -0.5 -0.07131651390565552
vt 0 0.75
vt 0.0625 0.75
vt 0.0625 0.5625
vt 0 0.5625
vt 0 0.75
vt 0.0625 0.75
vt 0.0625 0.5625
vt 0 0.5625
vn 0.7071067811865475 0 0.7071067811865476
vn -0.7071067811865475 0 -0.7071067811865476
f 43/44/11 44/43/11 42/42/11 41/41/11
f 47/48/12 48/47/12 46/46/12 45/45/12
o cube
v -0.07573593128807149 -0.313125 -0.07131651390565552
v -0.07573593128807149 -0.313125 -0.07131651390565552
v -0.07573593128807149 -0.5 -0.07131651390565552
v -0.07573593128807149 -0.5 -0.07131651390565552
v -0.11993010511223073 -0.313125 -0.11551068772981476
v -0.11993010511223073 -0.313125 -0.11551068772981476
v -0.11993010511223073 -0.5 -0.11551068772981476
v -0.11993010511223073 -0.5 -0.11551068772981476
vt 0 0.75
vt 0.0625 0.75
vt 0.0625 0.5625
vt 0 0.5625
vt 0 0.75
vt 0.0625 0.75
vt 0.0625 0.5625
vt 0 0.5625
vn 0.7071067811865476 0 -0.7071067811865475
vn -0.7071067811865476 0 0.7071067811865475
f 52/52/13 55/51/13 53/50/13 50/49/13
f 56/56/14 51/55/14 49/54/14 54/53/14
